<svg height="21" viewBox="0 0 148 21" width="148" xmlns="http://www.w3.org/2000/svg"><g fill="#fff" fill-rule="evenodd"><path d="m63.2960139 15c.9391103 0 1.672097-.2272425 2.1989601-.6817276.5268631-.454485.7902946-1.0764119.7902946-1.8657807 0-.5700997-.1404968-1.051495-.4214904-1.4441861-.2809937-.392691-.8004622-.7843853-1.5584056-1.17508301-.5730791-.29501661-.9363374-.49933555-1.0897747-.61295681s-.2652802-.23122924-.3355286-.35282392-.1053726-.2641196-.1053726-.42757475c0-.26312292.0868862-.47641196.2606586-.63986711s.4233391-.24518272.7487002-.24518272c.273599 0 .5518197.03787375.834662.11362126s.6405546.20930232 1.0731369.40066445l.5545927-1.44119601c-.4177931-.19534884-.8180242-.34684386-1.2006932-.45448505-.382669-.1076412-.7847487-.1614618-1.2062392-.1614618-.85777 0-1.5297516.22126246-2.0159445.66378738-.486193.44252492-.7292894 1.05049834-.7292894 1.82392026 0 .41063123.0739457.76943522.2218371 1.07641196.1478913.30697675.3456961.57607977.5934142.80730897.247718.2312292.6192952.4724253 1.1147313.723588.5287118.2710964.8790295.4684386 1.0509532.5920266.1719238.1235881.3022531.2521595.3909879.3857143s.1331023.2860465.1331023.4574751c0 .3069767-.1007511.538206-.3022531.6936877s-.4908145.2332226-.8679376.2332226c-.3142692 0-.6608896-.0538206-1.0398613-.1614618s-.8420566-.2930233-1.3892548-.5561462v1.7222592c.6655113.3508305 1.4308492.5262458 2.2960139.5262458zm7.5868284-.1196013v-7.20000003h2.2017331v-1.54285714h-6.1227036v1.54285714h2.2017331v7.20000003zm6.6883882.1196013c.6913923 0 1.2903524-.1295681 1.7968804-.3887043s.8938186-.6318937 1.1618718-1.1182724c.2680531-.4863788.4020797-1.0524917.4020797-1.6983389v-5.65714287h-1.7136915v5.34019937c0 .6777408-.126632 1.175083-.379896 1.4920265-.253264.3169436-.6608897.4754153-1.222877.4754153-.5804737 0-.9964182-.1574751-1.2478336-.4724252-.2514154-.3149502-.3771231-.8093024-.3771231-1.4830565v-5.35215947h-1.7136915v5.63322257c0 1.0006645.2883883 1.7890366.8651647 2.3651163s1.3864818.8641196 2.4291161.8641196zm7.6422877-.1196013c1.4345465 0 2.5317158-.3827243 3.2915078-1.1481728s1.139688-1.8677741 1.139688-3.3069767c0-1.35149505-.3660312-2.40398674-1.0980935-3.15747511-.7320624-.75348838-1.7599076-1.13023256-3.0835356-1.13023256h-2.5455806v8.74285717zm.1608319-1.530897h-.7376083v-5.69302329h.915078c1.5380704 0 2.3071057.93887043 2.3071057 2.81661129 0 1.917608-.8281918 2.876412-2.4845754 2.876412zm9.3282496 1.530897v-3.4026578l2.6897747-5.34019937h-1.8523397l-1.6915078 3.6-1.680416-3.6h-1.8634315l2.6897747 5.39999997v3.3428572zm5.4294623 0v-8.74285717h-1.719237v8.74285717zm3.577123 0v-4.1142857c0-.4983389-.035124-1.3315615-.105372-2.49966782h.049913l3.52721 6.61395352h2.185095v-8.74285717h-1.547313v4.13820597c0 .4704319.027729 1.2737542.083188 2.4099668h-.038821l-3.521664-6.54817277h-2.168457v8.74285717zm9.389255 0v-3.4564784h2.75078v-1.51295684h-2.75078v-2.25448505h2.955979v-1.51893688h-4.647487v8.74285717zm8.041595.1196013c1.242287 0 2.196187-.3887043 2.861698-1.166113.665511-.7774086.998267-1.889701.998267-3.336877 0-1.45116282-.329983-2.56345518-.989948-3.33687711s-1.612941-1.16013289-2.858925-1.16013289c-1.245985 0-2.202658.38372093-2.870018 1.15116279s-1.00104 1.87873754-1.00104 3.33388701c0 1.4551495.332756 2.5714286.998267 3.3488372.665511.7774087 1.619411 1.166113 2.861699 1.166113zm0-1.5548173c-.683998 0-1.197921-.2471761-1.541768-.7415282-.343848-.4943522-.515771-1.2299003-.515771-2.2066445 0-.97674422.173772-1.71328907.521317-2.20963458.347545-.49634552.863316-.74451828 1.547314-.74451828 1.364298 0 2.046447.98471761 2.046447 2.95415286 0 1.9654485-.685847 2.9481727-2.057539 2.9481727z"/><path d="m20.834523.829752c-1.234948.0429-1.77241.624316-2.08411 1.000455-.524661.632939-1.166775 1.632001-2.079977 2.935222-2.533988-1.605561-4.043934-2.240675-4.057634-2.246376-.003 0-.0037-.0031-.0057-.0031-.0271-.0118-.05051-.02024-.07751-.03204-1.83246-.904629-4.29559-1.335834-6.531901-.673343-.132379.031-.263663.06626-.39429.10387-.50664.160739-.98478.369175-1.431439.618566-3.1268 1.745512-4.703405 5.502273-3.578076 9.048544 1.286139 4.052879 5.419926 5.784466 8.548317 5.277196.0938-.01529.18625-.03324.27905-.05064 1.411603-.23381 2.837-.812777 4.221449-1.712556 1.99541-1.296831 3.208033-2.817913 3.680912-3.481443.480391-.549119.66839-.720614 1.004591-1.123444l.434597.259932 1.089468.707243-1.646928 2.300634c-.875509 1.223021-1.822241 2.359988-2.079975 3.696417-.1168.485569.216374 1.341321.663525 1.451589.214519.0529.84224.138184 1.480529-.409276.794239-.68123 1.428364-1.659154 3.056144-4.046265.288851-.423608.528553-.740135.876432-1.228865l.195337-.247531c.0563.0372.114072.07582.170532.113173.932362.713079 1.613257.968494 2.952276 1.583365 1.31573.60417 3.173579 1.142648 5.015198.821139 2.806359-.489961 5.112377-2.922206 4.807458-6.368087-.304832-3.445901-3.401534-5.621255-6.774265-5.135604-3.294578.474411-5.134276 2.536213-6.604246 4.519104l-1.08016-.766153s-.209664-.173091-.310573-.255799c.942768-1.319491 2.911829-3.091276 2.537827-4.785755-.321879-1.458341-1.410782-1.899247-2.276864-1.869138zm-12.653492 4.971272c1.83219-.01614 3.555709.896797 4.883941 1.583367.0562.0291.815854.519808 1.408182.900718-1.839169 2.590091-4.092811 4.460457-6.426481 4.333587-2.11396-.199861-3.00033-1.252331-3.30264-2.422591-.302321-1.17026.07232-2.506684.688329-3.305226.516552-.530158 1.208636-.899665 1.957504-1.022675.265351-.04359.529426-.06488.791165-.06718zm20.778191 1.13613239c1.331655-.00497539 2.589278.75219261 3.132624 1.92807261.678979 1.53721-.370044 2.960314-1.197343 3.480924-.987642.621512-2.313027.560115-4.070035-.379304-.99904-.534151-1.858073-1.110152-2.677874-1.727544l.0062-.0062c.005.003.019.01201.02479.0155-.009-.007-.01405-.0114-.02273-.0186 1.20954-1.474261 2.375156-2.501175 3.471624-3.021004.436676-.183867.888849-.270158 1.332735-.27184461z" fill-rule="nonzero" transform="translate(17.587095 .947795)"/></g></svg>