<svg height="21" viewBox="0 0 160 21" width="160" xmlns="http://www.w3.org/2000/svg" xmlns:xlink="http://www.w3.org/1999/xlink"><filter id="a"><feColorMatrix in="SourceGraphic" type="matrix" values="0 0 0 0 1.000000 0 0 0 0 1.000000 0 0 0 0 1.000000 0 0 0 1.000000 0"/></filter><g fill="none" fill-rule="evenodd"><g filter="url(#a)"><g fill="#2a2a2a" fill-rule="nonzero" transform="translate(61)"><path d="m2.32911392 9c.95264886 0 1.69620254-.22724252 2.23066104-.68172757.53445851-.45448505.80168777-1.07641196.80168777-1.86578074 0-.57009966-.14252227-1.05149501-.42756681-1.44418604s-.81200187-.78438538-1.58087201-1.17508306c-.58134083-.29501661-.94983591-.49933555-1.10548523-.61295681s-.26910455-.23122924-.34036568-.35282392c-.07126114-.12159468-.10689171-.2641196-.10689171-.42757475 0-.26312292.08813878-.47641196.26441632-.63986711s.4294421-.24518272.75949367-.24518272c.27754337 0 .55977496.03787375.8466948.11362126.28691983.07574751.64978903.20930232 1.08860759.40066445l.56258791-1.44119601c-.42381623-.19534884-.82981716-.34684386-1.21800282-.45448505-.38818565-.1076412-.79606188-.1614618-1.22362869-.1614618-.87013596 0-1.55180497.22126246-2.04500703.66378738s-.7398031 1.05049834-.7398031 1.82392026c0 .41063123.07501172.76943522.22503517 1.07641196.15002344.30697675.35067979.57607974.60196905.80730897.25128927.23122924.62822316.47242525 1.13080169.72358804.5363338.27109635.89170183.46843854 1.06610408.59202658s.30661041.25215947.39662447.38571429c.09001407.13355482.1350211.28604651.1350211.45747508 0 .30697675-.10220347.53820598-.30661041.69368771s-.49789029.23322259-.88045007.23322259c-.31879981 0-.67041725-.0538206-1.05485232-.16146179-.38443507-.1076412-.85419597-.29302326-1.4092827-.55614618v1.72225913c.67510549.35083057 1.45147679.52624585 2.32911392.52624585zm7.69620258-.11960133v-7.2h2.2334739v-1.54285714h-6.21097043v1.54285714h2.23347398v7.2zm6.7848101.11960133c.7013596 0 1.3089545-.12956811 1.8227848-.38870432s.9067042-.63189369 1.1786217-1.11827242c.2719174-.48637874.4078762-1.0524917.4078762-1.69833887v-5.65714286h-1.7383966v5.34019933c0 .67774087-.1284576 1.17508306-.3853728 1.49202658-.2569151.31694352-.6704172.47541528-1.2405063.47541528-.588842 0-1.0107829-.15747508-1.2658228-.47242524-.2550398-.31495017-.3825597-.80930233-.3825597-1.48305648v-5.35215947h-1.7383967v5.63322259c0 1.00066445.2925457 1.78903654.8776372 2.36511628.5850914.57607973 1.4064697.8641196 2.464135.8641196zm7.7524613-.11960133c1.4552274 0 2.5682138-.38272425 3.3389592-1.14817276.7707454-.7654485 1.1561182-1.86777408 1.1561182-3.30697674 0-1.35149502-.3713081-2.40398671-1.1139241-3.15747508-.742616-.75348838-1.7852789-1.13023256-3.1279887-1.13023256h-2.5822785v8.74285714zm.1631505-1.53089701h-.7482419v-5.69302325h.92827c1.5602438 0 2.3403657.93887043 2.3403657 2.81661129 0 1.91760797-.8401313 2.87641196-2.5203938 2.87641196zm7.7805907 1.53089701v-8.74285714h-1.7440225v8.74285714zm6.8073137 0v-1.53089701h-2.9929677v-2.25448505h2.7848101v-1.51893688h-2.7848101v-1.91960132h2.9929677v-1.51893688h-4.7369902v8.74285714zm3.4599156 0v-8.74285714h-1.7440225v8.74285714zm3.628692 0-.0005454-4.22619839c-.0047265-.50716658-.0401753-1.30308495-.1063464-2.3877551h.050633l3.578059 6.61395349h2.2165964v-8.74285714h-1.5696203v4.13820598c0 .47043189.0281294 1.27375415.0843882 2.40996678h-.0393811l-3.5724332-6.54817276h-2.1997187v8.74285714zm9.5246132 0v-3.4564784h2.790436v-1.51295681h-2.790436v-2.25448505h2.9985935v-1.51893688h-4.7144866v8.74285714zm8.1575246.11960133c1.2601969 0 2.2278481-.38870432 2.9029536-1.16611296.6751055-.77740863 1.0126582-1.88970099 1.0126582-3.33687707 0-1.45116279-.3347398-2.56345515-1.0042194-3.33687708-.6694796-.77342193-1.6361932-1.16013289-2.9001407-1.16013289-1.2639474 0-2.2344116.38372093-2.9113924 1.15116279-.6769807.76744186-1.0154711 1.87873754-1.0154711 3.33388704 0 1.45514951.3375527 2.57142858 1.0126582 3.34883721.6751055.77740864 1.6427567 1.16611296 2.9029536 1.16611296zm0-1.55481728c-.6938584 0-1.2151899-.24717608-1.5639944-.74152823-.3488045-.49435216-.5232067-1.22990034-.5232067-2.20664452 0-.97674419.1762775-1.71328904.5288326-2.20963455.3525551-.49634552.8757618-.74451828 1.5696202-.74451828 1.3839663 0 2.0759494.98471761 2.0759494 2.95415283 0 1.9654485-.6957337 2.94817275-2.0872011 2.94817275z"/><path d="m3.71050107 21c1.15917644 0 2.06833444-.4036545 2.72747399-1.2109635.65913954-.8073089.98870932-1.9046511.98870932-3.2920265 0-1.3913622-.3276757-2.4887044-.98302709-3.2920266-.65535138-.8033223-1.5626153-1.2049834-2.72179175-1.2049834-1.15160012 0-2.05981108.3996678-2.72463286 1.1990033-.66482179.7993356-.99723268 1.8946844-.99723268 3.2860465 0 1.3953489.32956977 2.4966778.98870932 3.3039867.65913955.807309 1.56640346 1.2109635 2.72179175 1.2109635zm0-.5740864c-.99249748 0-1.7539173-.3418604-2.28425946-1.0255814-.53034217-.6837209-.79551325-1.651495-.79551325-2.9033222 0-1.2478406.2680122-2.2106313.8040366-2.8883721.5360244-.6777409 1.29839126-1.0166113 2.28710058-1.0166113.99249748 0 1.75297027.3358804 2.28141835 1.0076412.52844809.6717608.79267213 1.6375415.79267213 2.8973422 0 1.2637873-.26422404 2.2345515-.79267213 2.9122923-.52844808.6777409-1.29270902 1.0166113-2.29278282 1.0166113zm6.20500332.4544851v-3.6119602h1.28418571c1.0000738 0 1.7728581-.2252491 2.3183528-.6757475.5454948-.4504983.8182422-1.0983388.8182422-1.9435216 0-1.6744186-.9887093-2.5116279-2.9661279-2.5116279h-2.03424103v8.7428572zm1.14212971-4.138206h-1.14212971v-4.0544851h1.37510151c.8258185 0 1.435712.1624585 1.8296804.4873755.3939685.3249169.5909527.8242524.5909527 1.4980066 0 .7295681-.2083487 1.2568106-.6250461 1.5817276-.4166974.3249169-1.0928837.4873754-2.0285588.4873754zm5.6651908 4.138206v-8.7428572h-.5795882v8.7428572zm2.9093056 0v-5.669103c0-.4704319-.022729-1.1681063-.0681869-2.0930233h.0454579l4.9208177 7.7621263h.5852704v-8.7428572h-.5625415v5.7049834c0 .6458472.0170467 1.3275748.0511402 2.0451827h-.0340935l-4.9151354-7.7501661h-.5795882v8.7428572zm10.0007379 0v-8.1687708h2.6990628v-.5740864h-5.983396v.5740864h2.6990628v8.1687708zm7.1993949.1196013c1.1591764 0 2.0683344-.4036545 2.727474-1.2109635.6591395-.8073089.9887093-1.9046511.9887093-3.2920265 0-1.3913622-.3276757-2.4887044-.9830271-3.2920266-.6553514-.8033223-1.5626153-1.2049834-2.7217917-1.2049834-1.1516002 0-2.0598111.3996678-2.7246329 1.1990033-.6648218.7993356-.9972327 1.8946844-.9972327 3.2860465 0 1.3953489.3295698 2.4966778.9887094 3.3039867.6591395.807309 1.5664034 1.2109635 2.7217917 1.2109635zm0-.5740864c-.9924975 0-1.7539173-.3418604-2.2842595-1.0255814-.5303421-.6837209-.7955132-1.651495-.7955132-2.9033222 0-1.2478406.2680122-2.2106313.8040366-2.8883721.5360244-.6777409 1.2983913-1.0166113 2.2871006-1.0166113.9924975 0 1.7529702.3358804 2.2814183 1.0076412s.7926721 1.6375415.7926721 2.8973422c0 1.2637873-.264224 2.2345515-.7926721 2.9122923-.5284481.6777409-1.292709 1.0166113-2.2927828 1.0166113zm6.2050033.4544851v-3.6119602h1.2841857c1.0000738 0 1.7728581-.2252491 2.3183529-.6757475.5454948-.4504983.8182422-1.0983388.8182422-1.9435216 0-1.6744186-.9887093-2.5116279-2.966128-2.5116279h-2.034241v8.7428572zm1.1421298-4.138206h-1.1421298v-4.0544851h1.3751015c.8258185 0 1.435712.1624585 1.8296805.4873755.3939684.3249169.5909527.8242524.5909527 1.4980066 0 .7295681-.2083488 1.2568106-.6250462 1.5817276-.4166974.3249169-1.0928836.4873754-2.0285587.4873754zm8.352889 4.2578073c1.1591765 0 2.0683345-.4036545 2.727474-1.2109635.6591396-.8073089.9887093-1.9046511.9887093-3.2920265 0-1.3913622-.3276756-2.4887044-.983027-3.2920266-.6553514-.8033223-1.5626153-1.2049834-2.7217918-1.2049834-1.1516001 0-2.0598111.3996678-2.7246329 1.1990033-.6648217.7993356-.9972326 1.8946844-.9972326 3.2860465 0 1.3953489.3295697 2.4966778.9887093 3.3039867.6591395.807309 1.5664035 1.2109635 2.7217917 1.2109635zm0-.5740864c-.9924974 0-1.7539173-.3418604-2.2842594-1.0255814-.5303422-.6837209-.7955133-1.651495-.7955133-2.9033222 0-1.2478406.2680122-2.2106313.8040366-2.8883721.5360244-.6777409 1.2983913-1.0166113 2.2871006-1.0166113.9924975 0 1.7529703.3358804 2.2814184 1.0076412.528448.6717608.7926721 1.6375415.7926721 2.8973422 0 1.2637873-.2642241 2.2345515-.7926721 2.9122923-.5284481.6777409-1.2927091 1.0166113-2.2927829 1.0166113zm10.1655229.4544851v-.5740864h-3.9605195v-8.1687708h-.5795883v8.7428572zm2.011512 0v-3.5880399l1.1080364-1.0285714 3.1877352 4.6166113h.7102797l-3.4945761-5.0471761 3.4036603-3.6956811h-.7386909l-3.2559221 3.5760798-.9205225.9687707v-4.5448505h-.5795882v8.7428572zm9.1484024.1196013c.9887093 0 1.7595995-.2830565 2.3126706-.8491694.5530711-.566113.8296067-1.3514951.8296067-2.3561462v-5.6571429h-.5795882v5.7169435c0 .8172758-.2178191 1.4561462-.6534573 1.9166113-.4356382.4604652-1.0493199.6906977-1.841045.6906977-.8106659 0-1.4376061-.2342192-1.8808206-.7026578-.4432145-.4684385-.6648218-1.1232558-.6648218-1.9644518v-5.6571429h-.5852704v5.6332226c0 1.0166113.2699063 1.8089701.8097188 2.3770764.5398126.5681063 1.290815.8521595 2.2530072.8521595z"/></g></g><path d="m20.834523.829752c-1.234948.0429-1.77241.624316-2.08411 1.000455-.524661.632939-1.166775 1.632001-2.079977 2.935222-2.533988-1.605561-4.043934-2.240675-4.057634-2.246376-.003 0-.0037-.0031-.0057-.0031-.0271-.0118-.05051-.02024-.07751-.03204-1.83246-.904629-4.29559-1.335834-6.531901-.673343-.132379.031-.263663.06626-.39429.10387-.50664.160739-.98478.369175-1.431439.618566-3.1268 1.745512-4.703405 5.502273-3.578076 9.048544 1.286139 4.052879 5.419926 5.784466 8.548317 5.277196.0938-.01529.18625-.03324.27905-.05064 1.411603-.23381 2.837-.812777 4.221449-1.712556 1.99541-1.296831 3.208033-2.817913 3.680912-3.481443.480391-.549119.66839-.720614 1.004591-1.123444l.434597.259932 1.089468.707243-1.646928 2.300634c-.875509 1.223021-1.822241 2.359988-2.079975 3.696417-.1168.485569.216374 1.341321.663525 1.451589.214519.0529.84224.138184 1.480529-.409276.794239-.68123 1.428364-1.659154 3.056144-4.046265.288851-.423608.528553-.740135.876432-1.228865l.195337-.247531c.0563.0372.114072.07582.170532.113173.932362.713079 1.613257.968494 2.952276 1.583365 1.31573.60417 3.173579 1.142648 5.015198.821139 2.806359-.489961 5.112377-2.922206 4.807458-6.368087-.304832-3.445901-3.401534-5.621255-6.774265-5.135604-3.294578.474411-5.134276 2.536213-6.604246 4.519104l-1.08016-.766153s-.209664-.173091-.310573-.255799c.942768-1.319491 2.911829-3.091276 2.537827-4.785755-.321879-1.458341-1.410782-1.899247-2.276864-1.869138zm-12.653492 4.971272c1.83219-.01614 3.555709.896797 4.883941 1.583367.0562.0291.815854.519808 1.408182.900718-1.839169 2.590091-4.092811 4.460457-6.426481 4.333587-2.11396-.199861-3.00033-1.252331-3.30264-2.422591-.302321-1.17026.07232-2.506684.688329-3.305226.516552-.530158 1.208636-.899665 1.957504-1.022675.265351-.04359.529426-.06488.791165-.06718zm20.778191 1.13613239c1.331655-.00497539 2.589278.75219261 3.132624 1.92807261.678979 1.53721-.370044 2.960314-1.197343 3.480924-.987642.621512-2.313027.560115-4.070035-.379304-.99904-.534151-1.858073-1.110152-2.677874-1.727544l.0062-.0062c.005.003.019.01201.02479.0155-.009-.007-.01405-.0114-.02273-.0186 1.20954-1.474261 2.375156-2.501175 3.471624-3.021004.436676-.183867.888849-.270158 1.332735-.27184461z" fill="#fff" fill-rule="nonzero" transform="translate(17.587095 .947795)"/></g></svg>