<svg width="17" height="17" viewBox="0 0 17 17" fill="none" xmlns="http://www.w3.org/2000/svg">
<path d="M15.4475 16.041H0.611115C0.291115 16.041 0.0292969 15.7792 0.0292969 15.4592V0.622834C0.0292969 0.302834 0.291115 0.0410156 0.611115 0.0410156H15.4475C15.7675 0.0410156 16.0293 0.302834 16.0293 0.622834V15.4592C16.0293 15.7792 15.7675 16.041 15.4475 16.041Z" fill="#003479"/>
<path d="M4.08008 4.37493V5.80358H6.08019V3.80347H4.65154C4.33724 3.80347 4.08008 4.06062 4.08008 4.37493Z" fill="white"/>
<path d="M4.08008 11.8042C4.08008 11.947 4.19437 12.0899 4.36581 12.0899H5.79446C5.93733 12.0899 6.08019 11.947 6.08019 11.8042V7.80396H4.08008V11.8042Z" fill="white"/>
<path d="M11.7946 3.80347H8.08008V5.80358H12.0803V4.0892C12.0803 3.91776 11.9374 3.80347 11.7946 3.80347Z" fill="white"/>
<path d="M8.08008 9.80407H11.7946C11.966 9.80407 12.0803 9.68978 12.0803 9.51834V7.80396H8.08008V9.80407Z" fill="white"/>
</svg>
